<svg viewBox="0 0 30 30" xmlns="http://www.w3.org/2000/svg"><path d="M1.968 10.853c.158.54.376 1.061.653 1.55l-.788.994c-.257.325-.228.788.061 1.08l1.357 1.357c.293.293.756.318 1.08.061l.987-.781c.508.293 1.048.521 1.611.682l.148 1.27c.048.412.395.72.807.72h1.92c.412 0 .759-.309.807-.72l.141-1.225c.605-.158 1.183-.392 1.727-.698l.955.756c.325.257.788.228 1.08-.061l1.357-1.357c.293-.293.318-.756.061-1.08l-.743-.942c.309-.534.55-1.103.711-1.698l1.145-.132c.412-.048.72-.395.72-.807v-1.92c0-.412-.309-.759-.72-.807l-1.129-.132c-.154-.588-.386-1.151-.682-1.678l.695-.878c.257-.325.228-.788-.061-1.08l-1.354-1.354c-.293-.293-.756-.318-1.08-.061l-.852.675c-.553-.325-1.145-.572-1.765-.74l-.129-1.103c-.048-.412-.395-.72-.807-.72h-1.92c-.412 0-.759.309-.807.72l-.129 1.103c-.637.17-1.244.428-1.81.765l-.884-.701c-.325-.257-.788-.228-1.08.061l-1.357 1.357c-.293.293-.318.756-.061 1.08l.74.936c-.296.534-.521 1.103-.669 1.695l-1.183.135c-.412.048-.72.395-.72.807v1.92c0 .412.309.759.72.807l1.248.145zm6.955-5.193c1.749 0 3.174 1.424 3.174 3.174 0 1.749-1.424 3.174-3.174 3.174-1.749 0-3.174-1.424-3.174-3.174 0-1.749 1.424-3.174 3.174-3.174zm18.977 5.666l-1.013-.855c-.312-.264-.772-.251-1.067.029l-.559.524c-.473-.228-.974-.389-1.492-.482l-.157-.772c-.08-.399-.45-.675-.855-.643l-1.322.113c-.405.035-.723.367-.736.775l-.026.785c-.508.183-.987.434-1.424.749l-.669-.444c-.341-.225-.794-.161-1.058.151l-.855 1.019c-.264.312-.251.772.029 1.068l.585.624c-.203.457-.347.936-.431 1.428l-.836.17c-.399.08-.675.45-.643.855l.113 1.322c.035.405.367.723.775.736l.904.029c.164.431.379.839.64 1.222l-.505.762c-.225.341-.161.794.151 1.058l1.013.855c.312.264.772.251 1.068-.029l.662-.621c.434.203.891.354 1.36.444l.183.907c.08.399.45.675.855.643l1.322-.113c.405-.035.723-.367.736-.775l.029-.887c.482-.17.939-.402 1.36-.688l.73.482c.341.225.794.161 1.058-.151l.855-1.013c.264-.312.251-.772-.029-1.068l-.588-.624c.215-.457.373-.939.463-1.434l.804-.164c.399-.08.675-.45.643-.855l-.113-1.322c-.035-.405-.367-.723-.775-.736l-.807-.026c-.167-.469-.392-.913-.672-1.325l.44-.662c.232-.341.167-.797-.145-1.061zm-4.981 7.64c-1.428.122-2.688-.942-2.807-2.37-.122-1.428.942-2.688 2.37-2.807 1.428-.122 2.688.942 2.807 2.37.122 1.428-.942 2.688-2.37 2.807zm-16.327 3.556c-.405.042-.717.383-.72.791l-.01.814c-.006.408.296.756.701.807l.598.077c.1.363.241.711.424 1.039l-.386.476c-.257.318-.238.775.048 1.068l.569.582c.286.293.743.325 1.068.074l.479-.37c.338.199.695.357 1.068.466l.064.617c.042.405.383.717.791.72l.814.01c.408.006.756-.296.807-.701l.074-.585c.405-.1.791-.251 1.158-.45l.45.363c.318.257.775.238 1.068-.048l.582-.569c.293-.286.325-.743.074-1.068l-.344-.447c.212-.354.376-.73.489-1.125l.534-.055c.405-.042.717-.383.72-.791l.01-.814c.006-.408-.296-.756-.701-.807l-.521-.068c-.1-.392-.248-.772-.44-1.125l.325-.399c.257-.318.238-.775-.048-1.068l-.569-.582c-.286-.293-.743-.325-1.068-.074l-.389.299c-.367-.222-.759-.392-1.17-.508l-.051-.505c-.042-.405-.383-.717-.791-.72l-.814-.01c-.408-.006-.756.296-.807.701l-.064.502c-.424.109-.833.277-1.212.495l-.402-.328c-.318-.257-.775-.238-1.068.048l-.585.572c-.293.286-.325.743-.074 1.067l.344.444c-.199.354-.357.73-.46 1.125l-.563.058zm5.251-.92c1.167.013 2.103.974 2.09 2.142-.013 1.167-.974 2.103-2.142 2.09-1.167-.013-2.103-.974-2.09-2.142.013-1.167.974-2.103 2.142-2.09z"/></svg>