<svg viewBox="0 0 30 30" xmlns="http://www.w3.org/2000/svg"><path d="M1.968 10.853c.158.54.376 1.061.653 1.55l-.788.994a.816.816 0 0 0 .061 1.08l1.357 1.357a.811.811 0 0 0 1.08.061l.987-.781a7.16 7.16 0 0 0 1.611.682l.148 1.27c.048.412.395.72.807.72h1.92a.813.813 0 0 0 .807-.72l.141-1.225a7.255 7.255 0 0 0 1.727-.698l.955.756a.816.816 0 0 0 1.08-.061l1.357-1.357a.811.811 0 0 0 .061-1.08l-.743-.942c.309-.534.55-1.103.711-1.698l1.145-.132a.812.812 0 0 0 .72-.807v-1.92a.813.813 0 0 0-.72-.807l-1.129-.132a7.106 7.106 0 0 0-.682-1.678l.695-.878a.816.816 0 0 0-.061-1.08l-1.354-1.354a.811.811 0 0 0-1.08-.061l-.852.675a7.185 7.185 0 0 0-1.765-.74L10.688.744a.812.812 0 0 0-.807-.72h-1.92a.813.813 0 0 0-.807.72l-.129 1.103a7.127 7.127 0 0 0-1.81.765l-.884-.701a.816.816 0 0 0-1.08.061L1.894 3.329a.811.811 0 0 0-.061 1.08l.74.936a6.993 6.993 0 0 0-.669 1.695l-1.183.135a.812.812 0 0 0-.72.807v1.92c0 .412.309.759.72.807l1.248.145zM8.923 5.66a3.178 3.178 0 0 1 3.174 3.174 3.178 3.178 0 0 1-3.174 3.174 3.178 3.178 0 0 1-3.174-3.174A3.178 3.178 0 0 1 8.923 5.66zM27.9 11.326l-1.013-.855a.8.8 0 0 0-1.067.029l-.559.524a5.786 5.786 0 0 0-1.492-.482l-.157-.772a.808.808 0 0 0-.855-.643l-1.322.113a.805.805 0 0 0-.736.775l-.026.785a5.786 5.786 0 0 0-1.424.749l-.669-.444a.804.804 0 0 0-1.058.151l-.855 1.019a.801.801 0 0 0 .029 1.068l.585.624a6.002 6.002 0 0 0-.431 1.428l-.836.17a.808.808 0 0 0-.643.855l.113 1.322a.805.805 0 0 0 .775.736l.904.029c.164.431.379.839.64 1.222l-.505.762a.804.804 0 0 0 .151 1.058l1.013.855a.801.801 0 0 0 1.068-.029l.662-.621a5.79 5.79 0 0 0 1.36.444l.183.907c.08.399.45.675.855.643l1.322-.113a.805.805 0 0 0 .736-.775l.029-.887c.482-.17.939-.402 1.36-.688l.73.482a.804.804 0 0 0 1.058-.151l.855-1.013a.801.801 0 0 0-.029-1.068l-.588-.624c.215-.457.373-.939.463-1.434l.804-.164a.808.808 0 0 0 .643-.855l-.113-1.322a.805.805 0 0 0-.775-.736l-.807-.026a5.837 5.837 0 0 0-.672-1.325l.44-.662a.799.799 0 0 0-.145-1.061zm-4.981 7.64a2.598 2.598 0 1 1-.437-5.177 2.598 2.598 0 0 1 .437 5.177zM6.592 22.522a.803.803 0 0 0-.72.791l-.01.814a.802.802 0 0 0 .701.807l.598.077c.1.363.241.711.424 1.039l-.386.476a.803.803 0 0 0 .048 1.068l.569.582a.803.803 0 0 0 1.068.074l.479-.37c.338.199.695.357 1.068.466l.064.617a.803.803 0 0 0 .791.72l.814.01a.802.802 0 0 0 .807-.701l.074-.585c.405-.1.791-.251 1.158-.45l.45.363a.803.803 0 0 0 1.068-.048l.582-.569a.803.803 0 0 0 .074-1.068l-.344-.447c.212-.354.376-.73.489-1.125l.534-.055a.803.803 0 0 0 .72-.791l.01-.814a.802.802 0 0 0-.701-.807l-.521-.068a4.888 4.888 0 0 0-.44-1.125l.325-.399a.803.803 0 0 0-.048-1.068l-.569-.582a.803.803 0 0 0-1.068-.074l-.389.299a4.747 4.747 0 0 0-1.17-.508l-.051-.505a.803.803 0 0 0-.791-.72l-.814-.01a.802.802 0 0 0-.807.701l-.064.502a4.867 4.867 0 0 0-1.212.495L9 19.206a.803.803 0 0 0-1.068.048l-.585.572a.802.802 0 0 0-.074 1.067l.344.444c-.199.354-.357.73-.46 1.125l-.563.058zm5.251-.92a2.118 2.118 0 0 1 2.09 2.142 2.118 2.118 0 0 1-2.142 2.09 2.118 2.118 0 0 1-2.09-2.142 2.118 2.118 0 0 1 2.142-2.09z"/></svg>