<?xml version="1.0" standalone="no"?>
<!DOCTYPE svg PUBLIC "-//W3C//DTD SVG 20010904//EN"
 "http://www.w3.org/TR/2001/REC-SVG-20010904/DTD/svg10.dtd">
<svg version="1.0" xmlns="http://www.w3.org/2000/svg"
 width="160.000000pt" height="160.000000pt" viewBox="0 0 160.000000 160.000000"
 preserveAspectRatio="xMidYMid meet">
<metadata>
Created by potrace 1.11, written by Peter Selinger 2001-2013
</metadata>
<g transform="translate(0.000000,160.000000) scale(0.100000,-0.100000)"
fill="#000000" stroke="none">
<path d="M579 1347 c-1 -1 -3 -37 -4 -79 -1 -51 2 -78 9 -79 6 -1 61 -2 121
-3 l110 -1 2 -82 1 -83 -76 -1 c-42 -1 -88 -2 -102 -3 -54 -6 -140 -37 -171
-63 -56 -47 -59 -66 -58 -345 1 -139 5 -262 10 -275 16 -42 68 -80 141 -104
66 -21 90 -23 325 -24 l253 -1 0 502 0 501 -22 34 c-23 35 -106 83 -163 95
-29 6 -373 17 -376 11z m237 -734 c2 -240 2 -242 -20 -245 -11 -2 -30 -2 -41
0 -19 3 -20 10 -18 240 1 130 2 240 2 244 1 3 18 5 39 5 l37 -2 1 -242z"/>
</g>
</svg>
